<svg xmlns="http://www.w3.org/2000/svg" width="750" height="220" viewBox="0 0 750 220"><rect width="750" height="220" fill="#ffffff"></rect><g><path d="M19.37297649557952 70.86999568583767 L138.5968254694789 68.64875870189496 L141.64311914457636 129.09973431756825 L22.22945238066675 132.29373031401545" stroke="none" stroke-width="0" fill="#f1f5f9"></path><path d="M21.120935080759526 68.37196191866113 C59.43140293202505 70.81967123982524, 98.68086193647281 70.23384448371667, 141.8012675672838 69.1721584933184 M19.23089269482643 69.21307704563839 C46.8337199766958 68.8631309853803, 72.70004484664302 68.70439658798198, 140.29576938005343 70.62197642091054 M140.28601438821462 68.69684938517557 C140.38021284991396 89.52043559238666, 138.89239133172325 108.86164653207442, 141.88029899611277 129.69132800185167 M139.80842649800687 70.77585131105218 C140.05055606893364 85.87245560449061, 139.44000733606325 102.7790571084722, 139.76041375881553 130.00067909647237 M139.17102340924092 128.52738153271676 C100.90804791289413 129.61245304623682, 65.58487502636193 130.4137743044094, 20.927399495570718 130.18556901761124 M138.87167239284278 128.87369824788325 C98.81433253551859 129.56641601675358, 55.434366776361635 129.84775673210814, 21.116432928426068 131.16732859956056 M18.775371352343026 127.90810045690779 C21.724900189962547 110.40650118236329, 21.487656053309543 89.78619970339294, 22.290484460069543 68.61243098913842 M19.065522181251477 129.90213489005825 C18.880896705201184 106.90317641252723, 19.99262455207836 84.82044268753971, 18.872149639370438 69.64355990580874" stroke="#64748b" stroke-width="1.5" fill="none"></path></g><text x="80" y="95" text-anchor="middle" dominant-baseline="middle" font-family="'Segoe UI', system-ui, -apple-system, sans-serif" font-size="14" font-weight="bold" fill="#1e1e1e">사용자 질문</text><text x="80" y="112" text-anchor="middle" dominant-baseline="middle" font-family="'Segoe UI', system-ui, -apple-system, sans-serif" font-size="16" font-weight="normal" fill="#1e1e1e">💬</text><g><path d="M192.0253957131232 37.91171945225155 L348.6775200497125 41.35544903639653 L349.46809610711745 158.00436424869753 L188.70874784531307 158.315601368092" stroke="none" stroke-width="0" fill="#dbeafe"></path><path d="M188.60636790653777 39.946449912525374 C229.86328038384096 40.882413101516626, 273.0785264850983 40.97464656222187, 348.71443692497814 41.2993161317653 M190.44921142652106 40.68029251494424 C225.019786481673 37.99421954133923, 261.410166732289 38.82668594416787, 351.0927835768923 39.365614993365924 M351.42748928753406 41.1355689897242 C347.3070676465825 77.42649058679456, 349.67857237952876 110.48437456515174, 350.0813841609047 159.4252933196508 M350.21896658173546 38.96060854624257 C349.81448619411043 76.44347060916732, 349.43424029393634 110.54451510819729, 350.37777719701324 159.77625082921224 M349.8359333870094 158.40899772565834 C288.24539134860174 158.26910898711486, 223.00728776590907 158.71991890283897, 192.36986867004902 159.9905074795125 M350.9799570677993 159.36684858562836 C295.1998045624864 159.8986816759412, 241.74963371802335 162.0081853861678, 190.2354878870513 160.24884261076048 M188.59312982784243 157.9600632584693 C190.64012571856927 128.98435080170373, 189.89469450382077 95.19432121713798, 192.10318017877154 40.94879148898735 M189.0450993436388 160.8968153528206 C191.17427001501622 125.62183505616404, 191.37421677347626 92.47880589432393, 190.3516837341149 40.661373710699415" stroke="#3b82f6" stroke-width="1.5" fill="none"></path></g><text x="270" y="68" text-anchor="middle" dominant-baseline="middle" font-family="'Segoe UI', system-ui, -apple-system, sans-serif" font-size="16" font-weight="bold" fill="#1e1e1e">Retriever</text><text x="270" y="88" text-anchor="middle" dominant-baseline="middle" font-family="'Segoe UI', system-ui, -apple-system, sans-serif" font-size="12" font-weight="normal" fill="#64748b">검색기</text><text x="270" y="115" text-anchor="middle" dominant-baseline="middle" font-family="'Segoe UI', system-ui, -apple-system, sans-serif" font-size="12" font-weight="normal" fill="#475569">Vector Search에서</text><text x="270" y="131" text-anchor="middle" dominant-baseline="middle" font-family="'Segoe UI', system-ui, -apple-system, sans-serif" font-size="12" font-weight="normal" fill="#475569">관련 청크 검색</text><g><path d="M399.2722352937922 41.05274924862033 L557.7851567706073 39.1336478473041 L557.9794107230565 159.3022829754162 L397.6154611427001 160.25338640719517" stroke="none" stroke-width="0" fill="#dcfce7"></path><path d="M397.6872260148069 39.74011451395122 C449.8069733819855 41.21924665136984, 497.2297688899739 41.132496834420635, 560.4049698557152 42.345104923344465 M401.1846440743384 40.530668746614445 C459.47706498743696 37.2488351043872, 519.6868981767367 37.693642401512484, 560.6737838210437 39.61096577233054 M558.5545082433006 37.96107654650438 C558.8639251519686 76.58975433729748, 559.6157413762343 112.27994418325927, 559.5774609067838 158.60652274077557 M560.4643355970837 39.529421818646384 C560.7397606338536 70.08770020217158, 560.1705359848405 99.45772847795521, 559.7473494834844 159.03638668934218 M558.4476325568005 160.92135251476785 C507.17939283442917 161.95053829652963, 451.77406098607713 159.64379020217436, 401.08697090789764 162.2350929299922 M561.1083497432828 160.52874275688947 C516.6051994400349 160.05464297417433, 472.0061791484882 160.54177702649937, 399.6837958386523 160.1976785508568 M402.1215039079382 162.3102600032567 C401.53805723458237 125.5556619072786, 398.3855411675838 92.04891512679052, 399.7080454948849 39.189307705208876 M400.2477128190536 159.8205398174844 C401.66236070161233 117.02409636601654, 401.45585465031434 77.35280438080514, 401.04219282390983 39.47533283879869" stroke="#22c55e" stroke-width="1.5" fill="none"></path></g><text x="480" y="68" text-anchor="middle" dominant-baseline="middle" font-family="'Segoe UI', system-ui, -apple-system, sans-serif" font-size="16" font-weight="bold" fill="#1e1e1e">Augmenter</text><text x="480" y="88" text-anchor="middle" dominant-baseline="middle" font-family="'Segoe UI', system-ui, -apple-system, sans-serif" font-size="12" font-weight="normal" fill="#64748b">증강기</text><text x="480" y="115" text-anchor="middle" dominant-baseline="middle" font-family="'Segoe UI', system-ui, -apple-system, sans-serif" font-size="12" font-weight="normal" fill="#475569">프롬프트에</text><text x="480" y="131" text-anchor="middle" dominant-baseline="middle" font-family="'Segoe UI', system-ui, -apple-system, sans-serif" font-size="12" font-weight="normal" fill="#475569">검색 결과를 주입</text><g><path d="M607.6193048635118 39.09720085014048 L728.491560199834 40.946109287726415 L732.0757256224074 161.98178923156104 L609.135904887895 159.22090621776863" stroke="none" stroke-width="0" fill="#f3e8ff"></path><path d="M610.8078874080412 39.336435715317535 C658.5938527795713 40.87767766144023, 701.3606870292965 41.21334652289044, 728.4749962889152 39.568394440471145 M610.0709002841497 40.86578343124685 C648.9932451172668 40.31149043777464, 685.8637878423613 40.75564817373699, 728.8207544466155 38.82051481450327 M728.2357181108937 38.16700576704872 C732.3369884448684 81.04750790780726, 728.3392846984024 119.02972524051697, 731.7677972770854 158.86479750532857 M729.0057772653155 40.54852189474686 C731.5612330493869 66.14748002141174, 731.6967201923349 89.36770649247795, 729.0688131143964 159.15603441674918 M728.4802071789243 160.37177582616232 C691.7867822242755 160.13140472134862, 649.8700597554806 158.7478190833236, 609.7994232753911 159.41237397114685 M729.6800525510688 159.5537585606025 C690.351092666169 158.87508020058002, 650.6644445396942 157.60341730046693, 609.8028044345238 158.95578340807054 M609.4338222573509 160.67774411282747 C611.1301904723442 115.5378910720128, 609.1192533507067 77.3136823925207, 608.5770774108242 42.36119371955253 M610.4671452089783 160.12012253098098 C607.6562984277169 123.06956583583036, 607.990868086921 83.91885918045371, 610.8993845335234 39.84367645537883" stroke="#a855f7" stroke-width="1.5" fill="none"></path></g><text x="670" y="68" text-anchor="middle" dominant-baseline="middle" font-family="'Segoe UI', system-ui, -apple-system, sans-serif" font-size="16" font-weight="bold" fill="#1e1e1e">Generator</text><text x="670" y="88" text-anchor="middle" dominant-baseline="middle" font-family="'Segoe UI', system-ui, -apple-system, sans-serif" font-size="12" font-weight="normal" fill="#64748b">생성기</text><text x="670" y="115" text-anchor="middle" dominant-baseline="middle" font-family="'Segoe UI', system-ui, -apple-system, sans-serif" font-size="12" font-weight="normal" fill="#475569">LLM이</text><text x="670" y="131" text-anchor="middle" dominant-baseline="middle" font-family="'Segoe UI', system-ui, -apple-system, sans-serif" font-size="12" font-weight="normal" fill="#475569">답변 생성</text><g><path d="M138.75741447904 101.35047216170543 C155.63365454382986 98.57807619719182, 168.8088593384982 101.44190926257573, 189.92294726707357 99.67359465843248 M140.4709077311778 100.3232162928863 C152.74900343311305 100.7100095122259, 165.0708346267723 100.83987095671021, 190.62875033213595 100.59036880922915" stroke="#64748b" stroke-width="1.5" fill="none"></path></g><g><path d="M349.75722691407105 98.51626501873174 C364.46117048214876 98.9452972555484, 378.07612601330845 99.31417354512578, 399.87351381778774 101.52357630322794 M350.0632717139443 100.02984532418294 C364.9454859976378 100.21312585079336, 379.8154380621791 100.64663987200984, 400.05712751112395 100.6583508526282" stroke="#64748b" stroke-width="1.5" fill="none"></path></g><g><path d="M559.0403683667337 98.87630906155336 C578.2566781365339 98.84558819146167, 596.6766213585785 100.5675193757348, 610.5602818486095 100.8547122276765 M559.6118968061369 99.24928077538956 C569.9589568593856 99.48025206832216, 579.5713244466916 100.28158670541147, 610.7776656768408 99.9284010282516" stroke="#64748b" stroke-width="1.5" fill="none"></path></g><polygon points="190,100 182,95 182,105" fill="#64748b"></polygon><polygon points="400,100 392,95 392,105" fill="#64748b"></polygon><polygon points="610,100 602,95 602,105" fill="#64748b"></polygon><text x="270" y="180" text-anchor="middle" dominant-baseline="middle" font-family="'Segoe UI', system-ui, -apple-system, sans-serif" font-size="13" font-weight="bold" fill="#3b82f6">60%</text><text x="480" y="180" text-anchor="middle" dominant-baseline="middle" font-family="'Segoe UI', system-ui, -apple-system, sans-serif" font-size="13" font-weight="bold" fill="#22c55e">25%</text><text x="670" y="180" text-anchor="middle" dominant-baseline="middle" font-family="'Segoe UI', system-ui, -apple-system, sans-serif" font-size="13" font-weight="bold" fill="#a855f7">15%</text><text x="375" y="205" text-anchor="middle" dominant-baseline="middle" font-family="'Segoe UI', system-ui, -apple-system, sans-serif" font-size="11" font-weight="normal" fill="#94a3b8">← 품질 영향도</text></svg>